<?xml version="1.0" standalone="no"?><!DOCTYPE svg PUBLIC "-//W3C//DTD SVG 1.1//EN" "http://www.w3.org/Graphics/SVG/1.1/DTD/svg11.dtd"><svg t="1719843820910" class="icon" viewBox="0 0 1050 1024" version="1.1" xmlns="http://www.w3.org/2000/svg" p-id="13446" xmlns:xlink="http://www.w3.org/1999/xlink" width="205.078125" height="200"><path d="M62 62m163.46153848 0l596.1538459 0q163.46153848 0 163.46153848 163.46153848l0 573.07692305q0 163.46153848-163.46153848 163.46153847l-596.1538459 0q-163.46153848 0-163.46153848-163.46153847l0-573.07692305q0-163.46153848 163.46153848-163.46153848Z" fill="#470137" p-id="13447"></path><path d="M547.25769248 298.68461563l-115.17692344 190.1038456 123.22692334 201.86923096a6.35384619 6.35384619 0 0 1 0.61538467 4.64615419c-0.41153818 1.45000019-1.85384619 0.53846192-4.33076924 0.94230704h-87.93076904c-6.19230762 0-10.52692295-0.21923086-13.00384687-4.34615361q-12.39615352-24.1538458-24.76923047-47.99230752-12.39615352-23.83076953-26.31538477-48.61153828-13.93461563-24.75769219-27.55769238-50.15384649h-0.61923076q-12.39615352 24.76923047-25.7000001 49.53846182-13.31923096 24.76923047-26.31538389 49.22692295-12.9999999 24.46923076-26.62692364 48.60769219c-1.6538458 3.71538457-4.5500001 4.1000001-8.66923066 4.10000009H199.25c-1.64615362 0-2.57692324 0.65384648-2.78846191-1.00000019a6.21923115 6.21923115 0 0 1 0.93076962-4.33846143l119.51153877-196.2961541-116.41538495-196.91538398q-1.85769229-2.46538477-0.61923077-4.02307735a4.51153828 4.51153828 0 0 1 3.71538457-1.54999951h87.30769219a12.92692325 12.92692325 0 0 1 5.57692295 0.93076875 11.21538427 11.21538427 0 0 1 3.71538457 3.40384658q11.14615371 24.77307656 24.76923134 49.53846093 13.61538457 24.77692266 27.5538463 48.92307716 13.93461563 24.14615362 25.69999922 48.91538495h0.61923076q12.37692305-25.38461513 25.07692324-49.53846181 12.68846192-24.14999971 26.00769287-48.60769218 13.30769268-24.45384638 25.7000001-48.61153828a9.53076885 9.53076885 0 0 1 2.47692305-4.02307735 8.98461562 8.98461562 0 0 1 4.95384609-0.93076875h81.11538457a3.5499999 3.5499999 0 0 1 3.0999999 6.19230761zM724.96923066 704.28076894a191.85384638 191.85384638 0 0 1-82.66923105-17.33846132 131.43076963 131.43076963 0 0 1-57.89615362-52.32307676q-21.057692-34.97692324-21.05384589-87.62307714a161.6961542 161.6961542 0 0 1 21.05384589-81.11538458 154.56538477 154.56538477 0 0 1 61.30769239-59.4500001q40.24230732-22.29230742 97.21538438-22.29230742 3.09230771 0 8.0499999 0.3076919 4.95 0.32307714 11.76538534 0.93076963V263.38846133c0-2.88461513 1.23846153-4.33461533 3.71538458-4.33461534h78.02307685a3.28461504 3.28461504 0 0 1 3.71538458 3.71538458v365.96538456q0 10.53846123 0.92692265 22.91153907 0.93076963 12.39615352 1.55000039 22.29230742a6.40000019 6.40000019 0 0 1-3.71538457 6.19230762 307.15384658 307.15384658 0 0 1-62.53846172 18.57692285 335.76923057 335.76923057 0 0 1-59.4500001 5.57692295z m37.76923125-76.78461532v-169.04999971a61.42307695 61.42307695 0 0 0-10.21153886-1.85769229 123.50000039 123.50000039 0 0 0-12.69615411-0.61538467 95.61538477 95.61538477 0 0 0-43.34615331 9.9038461 84.63461573 84.63461573 0 0 0-32.50769239 28.48461504q-12.70000019 18.57692286-12.6961541 48.92307714a109.19615362 109.19615362 0 0 0 6.50000039 39.62692354 75.33846123 75.33846123 0 0 0 17.34230742 27.24615352 66.02692324 66.02692324 0 0 0 26.0038459 15.48076904 101.88461513 101.88461513 0 0 0 31.89230772 4.95384609q8.66538457 0 16.0999998-0.61538466a66.27307676 66.27307676 0 0 0 13.62307763-2.48076914z" fill="#FF61F6" p-id="13448"></path></svg>