<?xml version="1.0" standalone="no"?><!DOCTYPE svg PUBLIC "-//W3C//DTD SVG 1.1//EN" "http://www.w3.org/Graphics/SVG/1.1/DTD/svg11.dtd"><svg t="1719843319542" class="icon" viewBox="0 0 1050 1024" version="1.1" xmlns="http://www.w3.org/2000/svg" p-id="12373" xmlns:xlink="http://www.w3.org/1999/xlink" width="205.078125" height="200"><path d="M0 0m185.982906 0l678.290598 0q185.982906 0 185.982906 185.982906l0 652.034188q0 185.982906-185.982906 185.982906l-678.290598 0q-185.982906 0-185.982906-185.982906l0-652.034188q0-185.982906 185.982906-185.982906Z" fill="#00005B" p-id="12374"></path><path d="M502.51706 635.65894v72.568342a9.294769 9.294769 0 0 1-5.632 9.863658 178.294154 178.294154 0 0 1-41.498257 9.513573 453.124376 453.124376 0 0 1-55.309128 3.168273 311.471043 311.471043 0 0 1-77.850256-9.509196 230.185573 230.185573 0 0 1-67.286428-28.886428 205.202598 205.202598 0 0 1-52.132102-47.559111 210.79959 210.79959 0 0 1-33.818257-65.522872 276.055521 276.055521 0 0 1-11.981675-84.545641q0-71.154872 31.000069-125.054906a213.718427 213.718427 0 0 1 88.068376-83.84547 289.236239 289.236239 0 0 1 135.981948-31.673983 445.510017 445.510017 0 0 1 54.600206 2.818189 163.441778 163.441778 0 0 1 36.986529 8.454564 9.067214 9.067214 0 0 1 3.527112 8.454564v79.233094c0 4.227282-1.654154 5.636376-4.931829 4.227282a155.831795 155.831795 0 0 0-42.067146-12.826257 323.282051 323.282051 0 0 0-51.431931-3.877196 160.894906 160.894906 0 0 0-80.528411 19.521641 131.912205 131.912205 0 0 0-52.136478 52.49094 162.614701 162.614701 0 0 0-18.318223 79.25935 171.511248 171.511248 0 0 0 8.809026 57.772855 136.992821 136.992821 0 0 0 24.30906 42.977368 120.398769 120.398769 0 0 0 35.22735 28.886427 173.349197 173.349197 0 0 0 41.922735 15.854496 190.148923 190.148923 0 0 0 43.323077 6.590359 475.171009 475.171009 0 0 0 47.559111-2.113641 164.067556 164.067556 0 0 0 37.975522-9.758633q2.800684-2.118017 4.227282-1.059008a5.605744 5.605744 0 0 1 1.404718 4.577367zM664.287179 469.385846v247.02906c0 3.763419-1.654154 5.636376-4.931829 5.636376h-87.915213a5.601368 5.601368 0 0 1-6.340923-6.340923V229.135316c0-3.282051 1.872957-4.931829 5.636376-4.931829h88.615384a4.36294 4.36294 0 0 1 4.936205 4.931829l0.512 166.273094a201.382291 201.382291 0 0 1 40.701812-20.786325c14.795487-5.391316 32.054701-6.669128 51.786394-6.669128a140.708103 140.708103 0 0 1 41.213812 6.345299 97.756991 97.756991 0 0 1 38.4 20.760069c11.732239 10.568205 19.968 24.899829 27.01347 42.972991q10.568205 27.131624 10.568205 70.104616v207.574427q0 6.345299-5.636376 6.340923h-82.497641a6.222769 6.222769 0 0 1-7.04547-7.04547V517.995214a88.365949 88.365949 0 0 0-6.695385-36.98653 52.416547 52.416547 0 0 0-18.313846-22.195419 60.127179 60.127179 0 0 0-32.238496-7.745641 104.334222 104.334222 0 0 0-31.000068 4.577367 85.398974 85.398974 0 0 0-26.768411 13.740855z" fill="#9999FF" p-id="12375"></path></svg>