<?xml version="1.0" standalone="no"?><!DOCTYPE svg PUBLIC "-//W3C//DTD SVG 1.1//EN" "http://www.w3.org/Graphics/SVG/1.1/DTD/svg11.dtd"><svg t="1719813313417" class="icon" viewBox="0 0 1024 1024" version="1.1" xmlns="http://www.w3.org/2000/svg" p-id="5820" xmlns:xlink="http://www.w3.org/1999/xlink" width="200" height="200"><path d="M853.317818 113.757091c31.464727 0 56.925091 25.460364 56.925091 56.925091v512c0 31.464727-25.460364 56.878545-56.925091 56.878545h-312.878545v113.757091h170.682182a28.439273 28.439273 0 0 1 0 56.925091H312.878545a28.439273 28.439273 0 0 1 0-56.925091h170.682182V739.607273H170.682182a56.832 56.832 0 0 1-56.925091-56.878546v-512c0-31.464727 25.460364-56.925091 56.925091-56.925091h682.635636zM426.682182 284.439273a28.439273 28.439273 0 0 0-28.439273 28.439272v192.41891a28.439273 28.439273 0 0 0 41.146182 25.413818l192.372364-96.162909a28.439273 28.439273 0 0 0 0-50.920728L439.389091 287.464727a28.439273 28.439273 0 0 0-12.706909-3.025454z" fill="#333333" p-id="5821"></path></svg>