<?xml version="1.0" standalone="no"?><!DOCTYPE svg PUBLIC "-//W3C//DTD SVG 1.1//EN" "http://www.w3.org/Graphics/SVG/1.1/DTD/svg11.dtd"><svg t="1719842684996" class="icon" viewBox="0 0 1050 1024" version="1.1" xmlns="http://www.w3.org/2000/svg" p-id="11111" xmlns:xlink="http://www.w3.org/1999/xlink" width="205.078125" height="200"><path d="M0 0m185.982906 0l678.290598 0q185.982906 0 185.982906 185.982906l0 652.034188q0 185.982906-185.982906 185.982906l-678.290598 0q-185.982906 0-185.982906-185.982906l0-652.034188q0-185.982906 185.982906-185.982906Z" fill="#00005B" p-id="11112"></path><path d="M148.086154 266.493812a4.726154 4.726154 0 0 1 5.356308-4.227282h123.155692a6.686632 6.686632 0 0 1 7.360547 4.936205q4.673641 18.326974 11.377778 44.032 6.686632 25.726906 14.392889 56.713846l15.727589 63.409231q8.034462 32.417915 15.731966 63.059145 7.684376 30.645607 13.049436 56.363761 5.347556 25.726906 8.699624 42.622906h0.673914q2.66065-14.791111 9.364787-39.454633 6.682256-24.650393 15.395008-55.304752 8.695248-30.645607 17.740582-63.059145 9.036581-32.396034 17.736205-64.109402 8.690872-31.708991 16.397128-58.831863 7.688752-27.11412 12.384273-45.441094a5.846427 5.846427 0 0 1 6.02147-4.936205h119.808a5.321299 5.321299 0 0 1 6.025847 4.936205l16.060171 450.201162a4.695521 4.695521 0 0 1-1.00212 4.581744 5.73265 5.73265 0 0 1-4.349812 1.75918h-87.009368a5.229402 5.229402 0 0 1-3.347692-1.054633 4.678017 4.678017 0 0 1-1.339077-3.87282q0-35.936274-0.336957-75.390906-0.345709-39.44588-1.006496-79.259351-0.669538-39.795966 0-76.445538 0.665162-36.623316 0.673915-67.636513 0-30.991316 0.332581-53.895658 0.332581-22.886838 0.336957-34.172718h-0.669538q-4.017231 17.622427-10.70824 46.150017-6.699761 28.531966-15.727589 64.109402-9.040957 35.590564-19.41224 73.62735-10.38441 38.049915-20.077401 75.38653-9.714872 37.35412-18.742701 69.75453-9.036581 32.413538-15.062428 57.063931a7.404308 7.404308 0 0 1-7.360547 5.636377H320.10065a7.198632 7.198632 0 0 1-8.030086-5.636377q-6.02147-24.650393-13.718974-57.063931-7.70188-32.40041-15.731966-67.636513-8.030085-35.22735-17.066667-72.218256-9.032205-36.990906-17.066666-71.509334-8.030085-34.514051-14.392889-64.818325-6.367179-30.286769-11.710359-53.545572h-1.339077V386.975726q0 32.413538-1.006496 71.509334-1.00212 39.104547-2.004239 81.727453-1.006496 42.636034-2.341197 88.068376-1.352205 45.441094-3.347692 89.827555c0 3.763419-1.789812 5.636376-5.356308 5.636377H129.347829a8.012581 8.012581 0 0 1-4.349812-1.054633q-1.68041-1.059009-1.006496-5.281914zM860.658872 569.987282h-138.791385a90.759658 90.759658 0 0 0 13.386393 36.990906 72.485197 72.485197 0 0 0 32.054701 26.418325q21.486496 9.876786 56.013675 9.863658a255.693675 255.693675 0 0 0 45.441094-3.872821 189.453128 189.453128 0 0 0 41.213812-12.33176c2.345573-1.868581 3.527111-0.700171 3.527112 3.522735v66.931966a10.432547 10.432547 0 0 1-1.059009 5.28629 10.108718 10.108718 0 0 1-3.17265 3.168274 197.570735 197.570735 0 0 1-45.795555 15.149948 309.650598 309.650598 0 0 1-62.000137 5.281915q-50.03159 0-83.841094-15.500034a149.429607 149.429607 0 0 1-54.950291-41.568274 162.780991 162.780991 0 0 1-30.299897-57.418393 226.102701 226.102701 0 0 1-9.159111-63.759316 222.067966 222.067966 0 0 1 10.922667-69.404445 181.278632 181.278632 0 0 1 32.759247-59.882119 157.380923 157.380923 0 0 1 52.845402-41.57265 165.25347 165.25347 0 0 1 73.268513-15.141196 159.004444 159.004444 0 0 1 67.990974 13.382017 122.967521 122.967521 0 0 1 46.145641 36.286359 160.229744 160.229744 0 0 1 26.06824 49.668376 177.003214 177.003214 0 0 1 8.454564 53.545572q0 15.50441-1.054633 28.181881-1.054632 12.681846-1.763555 18.318222a6.384684 6.384684 0 0 1-6.340923 5.636376q-4.227282 0-14.441026 1.059009-10.222496 1.054632-25.363692 1.409094-15.158701 0.363214-32.059077 0.350085z m-138.791385-68.34106h92.291282q16.913504 0 25.013607-0.350085a49.694632 49.694632 0 0 0 10.21812-1.059009v-4.227282a56.363761 56.363761 0 0 0-2.818188-16.204581 57.558427 57.558427 0 0 0-57.068308-40.15918 61.203692 61.203692 0 0 0-58.127316 33.11371 88.94359 88.94359 0 0 0-9.509197 28.886427z" fill="#9999FF" p-id="11113"></path></svg>