<?xml version="1.0" standalone="no"?><!DOCTYPE svg PUBLIC "-//W3C//DTD SVG 1.1//EN" "http://www.w3.org/Graphics/SVG/1.1/DTD/svg11.dtd"><svg t="1719842134998" class="icon" viewBox="0 0 1050 1024" version="1.1" xmlns="http://www.w3.org/2000/svg" p-id="10059" xmlns:xlink="http://www.w3.org/1999/xlink" width="205.078125" height="200"><path d="M0 0m185.982906 0l678.290598 0q185.982906 0 185.982906 185.982906l0 652.034188q0 185.982906-185.982906 185.982906l-678.290598 0q-185.982906 0-185.982906-185.982906l0-652.034188q0-185.982906 185.982906-185.982906Z" fill="#00005B" p-id="10060"></path><path d="M269.45641 718.09094V267.885402c0-3.282051 1.409094-4.931829 4.227282-4.931829q11.259624 0 26.772787-0.350086 15.491282-0.350085 33.463795-0.704547 17.968137-0.350085 38.045538-0.704547 20.077402-0.350085 39.809094-0.350085 53.532444 0 90.182017 13.382017a156.466325 156.466325 0 0 1 58.827487 35.931897 137.82865 137.82865 0 0 1 32.059077 49.668376 164.754598 164.754598 0 0 1 9.863658 56.718223q0 56.376889-26.068239 93.000205a147.289709 147.289709 0 0 1-70.454701 53.195487 280.317812 280.317812 0 0 1-98.636581 16.554666q-15.508786 0-21.840957-0.350085-6.340923-0.350085-19.02277-0.350085v138.791384a5.601368 5.601368 0 0 1-6.345299 6.345299H274.392615c-3.290803 0-4.931829-1.872957-4.931829-5.640752zM366.683897 347.50359v145.841231q9.145983 0.713299 16.909129 0.704547h23.250051a166.220581 166.220581 0 0 0 50.372923-7.045471 75.959795 75.959795 0 0 0 35.931897-23.250051q13.740855-16.195829 13.740855-45.091008a71.255521 71.255521 0 0 0-10.21812-38.750086 65.702291 65.702291 0 0 0-30.645606-25.009231 130.58188 130.58188 0 0 0-51.431932-8.809025q-16.913504 0-29.945436 0.350085-13.040684 0.36759-17.963761 1.059009zM642.161778 632.840752V229.839863q0-5.627624 6.345299-5.636376h85.245812q6.345299 0 6.345299 5.636376v394.546325q0 14.795487 5.281915 21.13641 5.281915 6.345299 17.968136 6.345299a41.025641 41.025641 0 0 0 6.336547-0.354461l6.345299-1.059009a4.993094 4.993094 0 0 1 2.113641 0.350086c0.459487 0.24506 0.700171 1.763556 0.700171 4.581743v60.591043a28.768274 28.768274 0 0 1-0.350085 5.636376q-0.363214 1.422222-3.168274 2.818188a107.826325 107.826325 0 0 1-17.613675 4.581744 160.601709 160.601709 0 0 1-26.777162 1.759179 120.70947 120.70947 0 0 1-45.441094-8.100102 62.275829 62.275829 0 0 1-31.704616-29.590975q-11.622838-21.486496-11.627213-60.240957z" fill="#9999FF" p-id="10061"></path></svg>