<?xml version="1.0" standalone="no"?><!DOCTYPE svg PUBLIC "-//W3C//DTD SVG 1.1//EN" "http://www.w3.org/Graphics/SVG/1.1/DTD/svg11.dtd"><svg t="1719844339869" class="icon" viewBox="0 0 1050 1024" version="1.1" xmlns="http://www.w3.org/2000/svg" p-id="14441" xmlns:xlink="http://www.w3.org/1999/xlink" width="205.078125" height="200"><path d="M0 0m185.982906 0l678.290598 0q185.982906 0 185.982906 185.982906l0 652.034188q0 185.982906-185.982906 185.982906l-678.290598 0q-185.982906 0-185.982906-185.982906l0-652.034188q0-185.982906 185.982906-185.982906Z" fill="#1E3101" p-id="14442"></path><path d="M192.949607 716.681846V268.589949a5.133128 5.133128 0 0 1 4.931829-5.636376q10.568205-0.691419 31.000068-1.054633 20.427487-0.350085 47.909197-0.704547 27.481709-0.350085 58.477402-0.350085 84.545641 0 140.204854 28.882051a195.128889 195.128889 0 0 1 83.491009 79.263726q27.823043 50.377299 27.827419 115.895795a258.529368 258.529368 0 0 1-14.441026 89.831932 209.596171 209.596171 0 0 1-39.459009 67.282051 234.605402 234.605402 0 0 1-56.713846 46.854564 249.46653 249.46653 0 0 1-67.636513 27.477334 297.760821 297.760821 0 0 1-71.159247 8.804649H284.895179q-27.844923 0-51.786393-0.350085-23.96335-0.363214-35.927521-1.059009-4.231658 0-4.231658-7.04547zM290.177094 347.50359v291.682461q7.745641 0 14.09094 0.350086c4.227282 0.24506 8.563966 0.476991 13.031932 0.708923q6.691009 0.363214 15.149949 0.350085a188.696068 188.696068 0 0 0 62.704683-9.863658 128.24506 128.24506 0 0 0 48.259282-29.590974 132.914325 132.914325 0 0 0 31.004445-48.613744 184.385641 184.385641 0 0 0 10.91829-65.522872 165.301607 165.301607 0 0 0-10.568205-61.645675 116.709744 116.709744 0 0 0-30.649983-44.386461 125.475009 125.475009 0 0 0-47.90482-26.422701 208.957265 208.957265 0 0 0-60.945504-8.454564q-14.104068 0-23.604513 0.350085-9.509197 0.36759-21.486496 1.059009zM863.660855 465.158564a164.728342 164.728342 0 0 0-41.918359-14.791111 222.632479 222.632479 0 0 0-48.968205-5.640752 91.118496 91.118496 0 0 0-26.418325 3.172649 23.740171 23.740171 0 0 0-13.740855 8.80465 22.186667 22.186667 0 0 0-3.518359 11.977299 18.707692 18.707692 0 0 0 4.227282 11.272752 47.952957 47.952957 0 0 0 14.791111 11.627214 295.170188 295.170188 0 0 0 31.004445 14.441026 307.2 307.2 0 0 1 67.282051 32.059077 102.325607 102.325607 0 0 1 34.52718 36.281982 96.74612 96.74612 0 0 1 10.213743 45.091009 101.27535 101.27535 0 0 1-16.909128 58.127316 111.222154 111.222154 0 0 1-48.968205 39.100171q-32.067829 14.09094-79.259351 14.09094a286.649983 286.649983 0 0 1-59.53641-5.636376 170.299077 170.299077 0 0 1-42.622906-14.09094 9.124103 9.124103 0 0 1-4.936205-8.454564v-76.091077a4.139761 4.139761 0 0 1 1.763556-3.87282 3.417709 3.417709 0 0 1 3.877196 0.350085 175.633504 175.633504 0 0 0 52.136479 21.486496 223.708991 223.708991 0 0 0 51.431931 6.695384q24.650393 0 36.281983-6.340923a19.915487 19.915487 0 0 0 11.627214-18.318222q0-9.145983-10.568205-17.613675-10.568205-8.454564-42.981744-20.431863a258.988855 258.988855 0 0 1-62.350222-31.704616 107.528752 107.528752 0 0 1-33.113709-36.98653 97.15747 97.15747 0 0 1-10.213744-44.740923 100.999658 100.999658 0 0 1 14.791111-52.841025 107.52 107.52 0 0 1 45.799932-40.15918q30.991316-15.491282 77.500171-15.500034a343.083761 343.083761 0 0 1 54.250119 3.877196 132.354188 132.354188 0 0 1 36.636445 10.213744 6.424068 6.424068 0 0 1 4.227282 3.877197 19.464752 19.464752 0 0 1 0.700171 5.281914v71.159248a4.734906 4.734906 0 0 1-2.109265 4.227282 4.621128 4.621128 0 0 1-4.931829 0z" fill="#99E83F" p-id="14443"></path></svg>