<?xml version="1.0" standalone="no"?><!DOCTYPE svg PUBLIC "-//W3C//DTD SVG 1.1//EN" "http://www.w3.org/Graphics/SVG/1.1/DTD/svg11.dtd"><svg t="1719807547420" class="icon" viewBox="0 0 1024 1024" version="1.1" xmlns="http://www.w3.org/2000/svg" p-id="4474" xmlns:xlink="http://www.w3.org/1999/xlink" width="200" height="200"><path d="M0 0m136.533333 0l750.933334 0q136.533333 0 136.533333 136.533333l0 750.933334q0 136.533333-136.533333 136.533333l-750.933334 0q-136.533333 0-136.533333-136.533333l0-750.933334q0-136.533333 136.533333-136.533333Z" fill="#30384F" p-id="4475"></path><path d="M547.0208 850.957653L301.615787 709.277013V425.984l245.405013-141.748907L792.41216 425.984v283.293013z" fill="#59554A" p-id="4476"></path><path d="M768.928427 700.66176l-38.352214 22.1184a9.721173 9.721173 0 0 1-4.942506 1.365333 9.91232 9.91232 0 0 1-4.942507-18.445653l38.324907-22.145707a34.73408 34.73408 0 0 0 17.28512-29.914453v-281.258667a34.69312 34.69312 0 0 0-17.28512-29.928106l-243.698347-140.629334a34.638507 34.638507 0 0 0-34.583893 0L395.946667 250.729813a46.789973 46.789973 0 0 1 2.402986 14.103894 47.786667 47.786667 0 1 1-12.151466-31.3344l84.650666-48.837974a54.613333 54.613333 0 0 1 54.381227 0l243.698347 140.629334a54.613333 54.613333 0 0 1 27.19744 47.076693v281.258667a54.504107 54.504107 0 0 1-27.19744 47.035733z m-393.762134-448.812373a9.188693 9.188693 0 0 1-0.477866-0.873814 26.528427 26.528427 0 1 0 3.8912 13.871787 27.142827 27.142827 0 0 0-3.413334-12.997973z m350.467414 472.255146zM353.621333 460.43136q-48.346453-142.690987 78.260907-62.286507 119.808-90.412373 82.98496 55.760214 122.30656 86.766933-27.0336 96.733866-44.15488 144.083627-99.669333 4.096-149.62688 2.17088-34.542934-94.303573z m46.2848 79.62624q42.216107 106.496 75.776-3.072 113.568427-7.522987 20.48-73.550507 27.989333-111.138133-63.105706-42.3936-96.256-61.139627-59.51488 47.34976-87.49056 73.345707 26.309973 71.666347z m189.27616-198.137173q23.743147-45.056 34.03776 4.805973 50.858667 8.492373 6.007467 33.42336 7.686827 50.3808-30.324053 15.865173-46.134613 22.623573-24.753494-23.63392-36.20864-36.399787 15.03232-30.460586z m12.629334 329.44128a14.445227 14.445227 0 0 1-20.48 0l-74.888534-74.984107a14.45888 14.45888 0 1 1 20.48-20.48l74.929494 74.99776a14.472533 14.472533 0 0 1-0.04096 20.466347z m15.5648-211.244374q20.19328-27.921067 22.24128 5.556907 33.109333 9.161387 0.791893 22.336853 0.28672 33.641813-21.736107 8.27392-32.945493 11.618987-14.240426-17.257813-20.6848-26.391893 12.94336-18.909867zM275.401387 320.279893l-38.352214 22.145707a34.679467 34.679467 0 0 0-17.230506 29.928107v281.258666a34.69312 34.69312 0 0 0 17.28512 29.914454l243.698346 140.629333a34.69312 34.69312 0 0 0 34.583894 0l84.759893-48.933547a46.803627 46.803627 0 0 1-2.389333-14.09024 47.786667 47.786667 0 1 1 12.151466 31.3344l-84.650666 48.837974a54.613333 54.613333 0 0 1-54.381227 0l-243.698347-140.629334a54.490453 54.490453 0 0 1-27.19744-47.049386v-281.258667a54.613333 54.613333 0 0 1 27.19744-47.076693l38.311254-22.186667a9.898667 9.898667 0 1 1 9.91232 17.175893z m369.62304 468.309334a27.552427 27.552427 0 1 0-26.528427-27.470507 27.552427 27.552427 0 0 0 26.528427 27.52512zM791.893333 955.733333v-27.306666h109.226667v-13.653334h-13.653333v-13.653333h-13.653334v-13.653333h-13.653333v-13.653334h-13.653333v-13.653333h-13.653334v-13.653333h-13.653333v-13.653334h-13.653333v-13.653333h-13.653334v-13.653333h13.653334v-13.653334h13.653333v13.653334h13.653333v13.653333h13.653334v13.653333h13.653333v13.653334h13.653333v13.653333h13.653334v13.653333h13.653333v13.653334h13.653333v13.653333h13.653334v-109.226667h27.306666v163.84H791.893333z m70.314667-68.266666zM860.16 887.466667z" fill="#FFC738" p-id="4477"></path></svg>